{"title":"Just.Wright.2010.BDRip.XviD-SDTeam","uid":5762026,"size":414793784,"categoryP":"video","categoryS":"movies","magnet":"?xt=urn:btih:b8f4b6c4c54e8c8ad00ebb11f9d378327a3bb3fb&amp;dn=Just.Wright.2010.BDRip.XviD-SDTeam&amp;tr=udp%3A%2F%2Ftracker.openbittorrent.com%3A80&amp;tr=udp%3A%2F%2Fopen.demonii.com%3A1337&amp;tr=udp%3A%2F%2Ftracker.coppersurfer.tk%3A6969&amp;tr=udp%3A%2F%2Fexodus.desync.com%3A6969","seeders":0,"leechers":0,"uploader":"bg2k9","files":31,"time":1281762567,"description":"GREETZ: UnDeaD - BadGirl2k9 - virusofsaten - foxyb - WICCYWOLF - lizzymwah1\n\nRELEASE NAME: Just.Wright.2010.BDRip.XviD-SDTeam\nRELEASED BY: UnDeaD &amp; BadGirl2k9\nSIZE: 395 MB\n\nLANGUAGE: English\nIMDb: http://www.imdb.com/title/tt1407061/\n\nPLOT: Leslie Wright is a straight-shooting physical therapist \nwho gets the gig of a lifetime working with NBA All-Star Scott \nMcKnight. All is going well until Leslie finds herself falling \nfor Scott, forcing her to choose between the gig and the tug-of-war \ninside her heart. Oblivious to her romantic overtures, McKnight is \ninstead drawn to the affections of Leslie's childhood friend Morgan, \nwho has her sights set on being an NBA trophy wife. Is Leslie destined \nto play the role of &quot;best friend&quot; forever or will Scott finally see \nthat what he always wanted is right in front of him?\n\nSCREENS: &lt;a href=&quot;\nhttp://i658.photobucket.com/albums/uu309/BadGirl2k9/screens/vlcsnap-2010-08-14-01h47m21s202.png&quot; rel=&quot;nofollow&quot; target=&quot;_NEW&quot;&gt;\nhttp://i658.photobucket.com/albums/uu309/BadGirl2k9/screens/vlcsnap-2010-08-14-01h47m21s202.png&lt;/a&gt; &lt;a href=&quot;\nhttp://i658.photobucket.com/albums/uu309/BadGirl2k9/screens/vlcsnap-2010-08-14-01h47m34s71.png&quot; rel=&quot;nofollow&quot; target=&quot;_NEW&quot;&gt;\nhttp://i658.photobucket.com/albums/uu309/BadGirl2k9/screens/vlcsnap-2010-08-14-01h47m34s71.png&lt;/a&gt; &lt;a href=&quot;\nhttp://i658.photobucket.com/albums/uu309/BadGirl2k9/screens/vlcsnap-2010-08-14-01h47m41s140.png&quot; rel=&quot;nofollow&quot; target=&quot;_NEW&quot;&gt;\nhttp://i658.photobucket.com/albums/uu309/BadGirl2k9/screens/vlcsnap-2010-08-14-01h47m41s140.png&lt;/a&gt;\n\nGeneral\nFormat                           : AVI\nFormat/Info                      : Audio Video Interleave\nFile size                        : 396 MiB\nDuration                         : 1h 36mn\nOverall bit rate                 : 571 Kbps\nWriting application              : MEncoder SVN-r22963\nWriting library                  : MPlayer\n\nVideo\nID                               : 0\nFormat                           : MPEG-4 Visual\nFormat profile                   : Simple@L3\nFormat settings, BVOP            : No\nFormat settings, QPel            : No\nFormat settings, GMC             : No warppoints\nFormat settings, Matrix          : Default (H.263)\nCodec ID                         : XVID\nCodec ID/Hint                    : XviD\nDuration                         : 1h 36mn\nBit rate                         : 496 Kbps\nWidth                            : 512 pixels\nHeight                           : 208 pixels\nDisplay aspect ratio             : 2.462\nFrame rate                       : 20.000 fps\nResolution                       : 8 bits\nColorimetry                      : 4:2:0\nScan type                        : Progressive\nBits/(Pixel*Frame)               : 0.233\nStream size                      : 343 MiB (87%)\nWriting library                  : XviD 1.1.2 (UTC 2006-11-01)\n\nAudio\nID                               : 1\nFormat                           : MPEG Audio\nFormat version                   : Version 1\nFormat profile                   : Layer 3\nCodec ID                         : 55\nCodec ID/Hint                    : MP3\nDuration                         : 1h 36mn\nBit rate mode                    : Constant\nBit rate                         : 64.0 Kbps\nChannel(s)                       : 2 channels\nSampling rate                    : 44.1 KHz\nStream size                      : 44.3 MiB (11%)\nAlignment                        : Aligned on interleaves\nInterleave, duration             : 26 ms (0.52 video frame)\nInterleave, preload duration     : 522 ms\nWriting library                  : LAMEUUULAME3.97\n","torrent":{"xt":"urn:btih:b8f4b6c4c54e8c8ad00ebb11f9d378327a3bb3fb","amp;dn":"Just.Wright.2010.BDRip.XviD-SDTeam","amp;tr":["udp%3A%2F%2Ftracker.openbittorrent.com%3A80","udp%3A%2F%2Fopen.demonii.com%3A1337","udp%3A%2F%2Ftracker.coppersurfer.tk%3A6969","udp%3A%2F%2Fexodus.desync.com%3A6969"],"infoHash":"b8f4b6c4c54e8c8ad00ebb11f9d378327a3bb3fb","infoHashBuffer":{"type":"Buffer","data":[184,244,182,196,197,78,140,138,208,14,187,17,249,211,120,50,122,59,179,251]},"announce":[],"urlList":[]}}